name analog
datacolumns 19
datarows 33
range 0.0 0.016
endheader
time	ground_force_vx	ground_force_vy	ground_force_vz	ground_force_px	ground_force_py	ground_force_pz	l_ground_force_vx	l_ground_force_vy	l_ground_force_vz	l_ground_force_px	l_ground_force_py	l_ground_force_pz	ground_torque_x	ground_torque_y	ground_torque_z	l_ground_torque_x	l_ground_torque_y	l_ground_torque_z
0.0	-0.0	-0.0	-0.0	9.779802322387695	53.81228256225586	-431.7179260253906	13.462010383605955	-45.60708618164063	-384.5901184082031	-0.0	-0.0	-0.0	-0.0	-0.0	-0.0	91060.1796875	-36119.08203125	7358.35498046875
0.0005	-0.0	-0.0	-0.0	9.37784481048584	53.17756652832031	-425.1861267089844	12.342193603515623	-46.78829574584961	-392.8814392089844	-0.0	-0.0	-0.0	-0.0	-0.0	-0.0	93243.7265625	-36302.6875	7175.5908203125
0.001	-0.0	-0.0	-0.0	9.51223373413086	53.07780838012695	-421.4806213378906	11.676644325256348	-48.63221740722656	-400.8686828613281	-0.0	-0.0	-0.0	-0.0	-0.0	-0.0	95068.1875	-36388.1484375	7048.51904296875
0.0015	-0.0	-0.0	-0.0	9.46686840057373	52.40708923339844	-415.5611572265625	11.099567413330078	-49.32717514038086	-411.0819091796875	-0.0	-0.0	-0.0	-0.0	-0.0	-0.0	96788.96875	-36344.5625	6918.1689453125
0.002	-0.0	-0.0	-0.0	9.622406005859377	52.01896667480469	-408.2346801757813	11.166948318481444	-51.19234848022461	-417.7156372070313	-0.0	-0.0	-0.0	-0.0	-0.0	-0.0	98489.109375	-36470.17578125	6850.880859375
0.0025	-0.0	-0.0	-0.0	9.60153865814209	51.31631851196289	-405.097412109375	10.700920104980469	-52.88224792480469	-424.2135009765625	-0.0	-0.0	-0.0	-0.0	-0.0	-0.0	99890.671875	-36545.5390625	6713.326171875
0.003	-0.0	-0.0	-0.0	9.813156127929688	51.08433532714844	-398.4776306152344	10.001705169677734	-54.05113983154297	-431.5034790039063	-0.0	-0.0	-0.0	-0.0	-0.0	-0.0	101693.609375	-36393.05859375	6519.47314453125
0.0035	-0.0	-0.0	-0.0	9.91252613067627	50.43766021728516	-393.0490417480469	9.603449821472168	-55.44343566894531	-437.2271423339844	-0.0	-0.0	-0.0	-0.0	-0.0	-0.0	103292.953125	-36151.1796875	6385.68798828125
0.004	-0.0	-0.0	-0.0	10.4146146774292	49.23305130004883	-388.01373291015625	8.772117614746094	-56.94485092163086	-445.1595153808594	-0.0	-0.0	-0.0	-0.0	-0.0	-0.0	105048.8828125	-36341.2265625	6236.4287109375
0.0045000000000000005	-0.0	-0.0	-0.0	11.385884284973145	48.66519927978516	-380.25634765625	8.207010269165039	-58.1358642578125	-453.0093383789063	-0.0	-0.0	-0.0	-0.0	-0.0	-0.0	106457.59375	-36370.484375	5964.56103515625
0.005	-0.0	-0.0	-0.0	11.841836929321287	47.76061248779297	-371.5979309082031	7.908108711242676	-59.218292236328125	-459.9116821289063	-0.0	-0.0	-0.0	-0.0	-0.0	-0.0	107859.71875	-35971.4765625	5845.4052734375
0.0055	-0.0	-0.0	-0.0	12.095943450927734	46.87283706665039	-363.82861328125	6.912578582763672	-60.04579544067383	-466.3250427246094	-0.0	-0.0	-0.0	-0.0	-0.0	-0.0	109401.7265625	-35893.5703125	5611.51416015625
0.006	-0.0	-0.0	-0.0	12.710532188415527	45.64836120605469	-355.6138916015625	6.055338382720947	-61.29195785522461	-471.61328125	-0.0	-0.0	-0.0	-0.0	-0.0	-0.0	110811.75	-35401.01171875	5139.29541015625
0.006500000000000001	-0.0	-0.0	-0.0	12.35776710510254	45.00129318237305	-347.7518920898437	4.879093170166016	-62.29587936401367	-477.6777648925781	-0.0	-0.0	-0.0	-0.0	-0.0	-0.0	112032.703125	-35262.06640625	4793.2216796875
0.007	-0.0	-0.0	-0.0	11.75235652923584	43.79589080810547	-338.662109375	3.581211805343628	-63.62812423706055	-482.4896545410156	-0.0	-0.0	-0.0	-0.0	-0.0	-0.0	113127.0703125	-35136.66796875	4532.72509765625
0.0075	-0.0	-0.0	-0.0	11.217041969299316	43.13911437988281	-334.07110595703125	3.239990472793579	-63.95441818237305	-488.812255859375	-0.0	-0.0	-0.0	-0.0	-0.0	-0.0	114191.6015625	-34606.28515625	4243.5341796875
0.008	-0.0	-0.0	-0.0	11.40040111541748	41.67097091674805	-329.0902709960937	1.9887394905090328	-64.94901275634766	-492.0834045410156	-0.0	-0.0	-0.0	-0.0	-0.0	-0.0	115114.2578125	-34306.95703125	3856.807373046875
0.0085	-0.0	-0.0	-0.0	11.184104919433594	40.845333099365234	-323.5128173828125	0.9431362748146056	-65.36734771728516	-498.4598693847656	-0.0	-0.0	-0.0	-0.0	-0.0	-0.0	116149.5625	-33946.90625	3670.215087890625
0.009000000000000001	-0.0	-0.0	-0.0	11.047510147094728	39.64487838745117	-319.354248046875	-0.1213676333427429	-66.09712982177734	-501.2896423339844	-0.0	-0.0	-0.0	-0.0	-0.0	-0.0	117196.0078125	-33744.88671875	3283.656982421875
0.0095	-0.0	-0.0	-0.0	10.672532081604004	38.64989471435547	-316.0605163574219	-0.6535961031913757	-66.54782104492188	-505.5151977539063	-0.0	-0.0	-0.0	-0.0	-0.0	-0.0	118050.9609375	-33182.25390625	3022.332275390625
0.01	-0.0	-0.0	-0.0	10.809429168701172	37.636837005615234	-313.4000549316406	-1.475498914718628	-66.98028564453125	-510.27435302734375	-0.0	-0.0	-0.0	-0.0	-0.0	-0.0	119051.0	-33036.5390625	2737.669677734375
0.0105	-0.0	-0.0	-0.0	11.136245727539062	36.79327392578125	-309.9029846191406	-1.540645718574524	-67.6074447631836	-511.9137878417969	-0.0	-0.0	-0.0	-0.0	-0.0	-0.0	119507.140625	-32620.716796875	2521.950927734375
0.011	-0.0	-0.0	-0.0	11.136063575744627	35.9521598815918	-305.6298522949219	-2.185243368148804	-68.30504608154297	-515.1266479492188	-0.0	-0.0	-0.0	-0.0	-0.0	-0.0	119798.7890625	-32413.25390625	2397.725341796875
0.0115	-0.0	-0.0	-0.0	11.581933975219728	35.319637298583984	-303.2525329589844	-2.395191192626953	-68.98796081542969	-516.3018798828125	-0.0	-0.0	-0.0	-0.0	-0.0	-0.0	120240.0859375	-31922.29296875	2302.504150390625
0.012	-0.0	-0.0	-0.0	11.629938125610352	34.51750946044922	-300.04034423828125	-2.8625268936157227	-69.02659606933594	-516.931640625	-0.0	-0.0	-0.0	-0.0	-0.0	-0.0	120242.671875	-31746.443359375	2124.194580078125
0.0125	-0.0	-0.0	-0.0	12.002487182617188	33.65878677368164	-295.0340576171875	-2.93602991104126	-69.78266906738281	-518.23486328125	-0.0	-0.0	-0.0	-0.0	-0.0	-0.0	120243.53125	-31469.3828125	1994.4747314453125
0.013000000000000001	-0.0	-0.0	-0.0	11.954208374023438	33.05082321166992	-290.793212890625	-3.0161666870117188	-70.0237045288086	-520.0475463867188	-0.0	-0.0	-0.0	-0.0	-0.0	-0.0	120479.1875	-31294.416015625	1822.0699462890625
0.0135	-0.0	-0.0	-0.0	11.565190315246582	32.702964782714844	-286.1070556640625	-3.0161666870117188	-70.36016082763672	-518.9052124023438	-0.0	-0.0	-0.0	-0.0	-0.0	-0.0	120725.546875	-31061.99609375	1870.45947265625
0.014	-0.0	-0.0	-0.0	11.76768684387207	32.47587585449219	-280.2323303222656	-2.9597861766815186	-70.76216125488281	-519.3777465820312	-0.0	-0.0	-0.0	-0.0	-0.0	-0.0	120508.8046875	-30989.70703125	1840.4498291015625
0.0145	-0.0	-0.0	-0.0	11.921808242797852	32.411094665527344	-277.69610595703125	-2.540318727493286	-70.98661804199219	-520.9664306640625	-0.0	-0.0	-0.0	-0.0	-0.0	-0.0	120558.0625	-30860.6015625	1838.1983642578125
0.015	-0.0	-0.0	-0.0	11.64633083343506	32.2730827331543	-274.7115783691406	-2.2500274181365967	-71.35589599609375	-521.5055541992188	-0.0	-0.0	-0.0	-0.0	-0.0	-0.0	120896.8671875	-30654.005859375	1870.6832275390625
0.0155	-0.0	-0.0	-0.0	11.970937728881836	32.354339599609375	-270.3769226074219	-1.8144335746765137	-71.71720886230469	-523.0291748046875	-0.0	-0.0	-0.0	-0.0	-0.0	-0.0	120935.8125	-30529.037109375	1808.8857421875
0.016	-0.0	-0.0	-0.0	11.68657684326172	32.17607879638672	-266.49249267578125	-1.483764410018921	-71.80552673339844	-523.3135375976562	-0.0	-0.0	-0.0	-0.0	-0.0	-0.0	120892.8125	-30658.89453125	1733.5184326171875
